<?xml version="1.0" encoding="UTF-8"?>
<svg xmlns="http://www.w3.org/2000/svg" version="1.1" viewBox="0 0 360 360">
  <style>
    .cls-1 {fill: #db0632;}
  </style>
  <g>
    <path class="cls-1" d="M194.7,36c-17.6,1.8-36.3,7.3-54,15.9-11.3,5.5-28.8,16.2-31.4,19.4-1.3,1.6-11.2-2.8,122.1,53.7,39.5,16.7,71.8,30.7,71.8,31s-46.5,32.5-103.2,71.4c-56.8,38.9-103.8,71.3-104.6,72-1,1,.2,1.9,6.5,4.5,36.3,15.3,80.9,12.1,121.4-8.6,26.5-13.5,50.9-34.4,68.1-58.4,8.1-11.2,19.6-33.9,23.6-46.4,5.7-17.6,6.6-24.3,6.6-45.5s-.3-20.3-2.8-29.5c-14.7-54.2-64-85.7-124.2-79.4"/>
    <path class="cls-1" d="M73.8,60.9c-.3,1.9-1.1,13.6-1.7,25.9l-1.2,22.4-5.4,8.1c-10.8,16-20,37.5-24.4,56.5-2.6,11.2-3.6,34.9-2,46.2,2.5,17.4,9.2,35.1,18.1,47.8l4.1,5.9-1.5,25.3c-.8,13.9-1.4,25.5-1.2,25.7.2.2,78.3-136.2,82.3-143.9.2-.4-14.3-27.6-32.3-60.5-17.9-32.9-33-60.5-33.4-61.3-.6-1-1-.5-1.3,2"/>
  </g>
</svg>
