<?xml version="1.0" encoding="UTF-8"?>
<svg xmlns="http://www.w3.org/2000/svg" version="1.1" viewBox="0 0 1920 360">
  <style>
    .cls-1 {fill: #6d6e72;}
    .cls-2 {fill: #db0632;}
  </style>
  <g>
    <path class="cls-2" d="M1702.1,36c-17.6,1.8-36.3,7.3-54,15.9-11.3,5.5-28.8,16.2-31.4,19.4-1.3,1.6-11.2-2.8,122.1,53.7,39.5,16.7,71.8,30.7,71.8,31s-46.5,32.5-103.2,71.4c-56.8,38.9-103.8,71.3-104.6,72-1,1,.2,1.9,6.5,4.5,36.3,15.3,80.9,12.1,121.4-8.6,26.5-13.5,50.9-34.4,68.1-58.4,8.1-11.2,19.6-33.9,23.6-46.4,5.7-17.6,6.6-24.3,6.6-45.5s-.3-20.3-2.8-29.5c-14.7-54.2-64-85.7-124.2-79.4"/>
    <path class="cls-2" d="M1581.2,60.9c-.3,1.9-1.1,13.6-1.7,25.9l-1.2,22.4-5.4,8.1c-10.8,16-20,37.5-24.4,56.5-2.6,11.2-3.6,34.9-2,46.2,2.5,17.4,9.2,35.1,18.1,47.8l4.1,5.9-1.5,25.3c-.8,13.9-1.4,25.5-1.2,25.7.2.2,78.3-136.2,82.3-143.9.2-.4-14.3-27.6-32.3-60.5-17.9-32.9-33-60.5-33.4-61.3-.6-1-1-.5-1.3,2"/>
    <path class="cls-1" d="M1465.3,47.7c-.2.4-5.5,25.2-11.8,55l-11.4,54.2-66.9.3-66.9.3-4.3,20c-2.4,11-4.3,20.3-4.3,20.8s29.9.8,66.5.8,66.5.3,66.5,1.2-22.7,108.9-23.6,112.1c-.5,1.6,1.1,1.8,23.3,1.8h23.8l27.9-131.2c15.3-72.2,28.1-132.3,28.4-133.5l.4-2.2h-23.6c-13,0-23.7.3-23.9.8"/>
    <path class="cls-1" d="M1251.6,47.3c0,.2-12.6,59.6-28,132.1-15.4,72.4-28,132.3-28,133.1,0,1.2,3.8,1.4,23.4,1.4h23.4l1.1-5.2c10.1-46.4,55-259.1,55-260.2s-3.1-1.5-23.5-1.5-23.5.2-23.5.4"/>
    <path class="cls-1" d="M1189.7,127.2h0c-6-37.8-30.2-65.2-66.5-75.4-15.6-4.4-23.5-4.9-72-4.7-25.3,0-47.6.3-49.5.6-8.4,1-23.6,4.6-33.1,7.9-54.6,19-93.3,64-106.1,123.4-1.9,9-2.3,13.4-2.2,30.5,0,18.4.2,20.8,2.6,29.7,10.7,39.5,39.4,65.6,79.5,72.3,14.4,2.4,104,1.7,115.3-.9,65.5-15.2,115.3-66.3,130.1-133.6,2.7-12.2,3.7-38.7,2-49.8h0ZM1076.1,257.9h0c-18.2,7.5-17.8,7.4-69.5,7.4s-52.5,0-67.1-7.6c-16.2-8.4-26.3-22.4-30.3-42.1-4.7-23,1.9-52,17.2-75.2,16.5-25,43.3-41.7,73.7-45.9,1.7-.2,22.1-.3,45.5-.2,40.2.2,42.9.3,50.4,2.4,28.9,8,45.6,30.7,45.6,61.8s-27.1,83.4-65.5,99.4h0Z"/>
    <path class="cls-1" d="M540.3,178.1c-15.3,72.2-28,132.1-28.3,133-.5,1.6,1.1,1.8,23.3,1.7h23.8l22.8-107.8c12.6-59.3,23-108.5,23.3-109.5.5-1.6,4.9-1.8,74.7-1.7,47.1,0,76.6.4,80.7,1.1,21.2,3.4,31.2,16.1,29.7,37.7-1.8,26.3-14.8,49.4-32.7,58.1-13.9,6.7-12.2,6.6-80.1,6.9l-61.6.4-4.2,19.8c-2.3,10.9-4.2,20.3-4.2,20.9s13.2,1.1,49.8,1.1h49.8l25.5,36.5,25.5,36.5h33.3c26.4,0,33.2-.3,32.6-1.2-.4-.7-14-18.3-30.2-39.2s-29.8-38.5-30.3-39.1c-.6-.7,1.5-2,5.9-3.8,17.1-6.7,36.8-23.3,47.8-40.1,17.6-27.1,25.7-67,19-93-6-23.1-23.2-39.6-49-46.7l-8-2.2-105.5-.3-105.5-.3-27.8,131.3"/>
    <path class="cls-1" d="M228.6,45.2c-1.9.6-6,3.6-9,6.6-5.3,5.3-8,10.7-66.7,131.6-33.7,69.3-61.5,126.8-61.9,127.8-.6,1.5,1.3,1.7,22.7,1.6h23.4l44.5-92c24.5-50.6,44.8-91.6,45.1-91.2s8.8,38.1,18.8,83.7c10,45.7,18.9,85.2,19.7,88,3.3,10.9,10.8,16.1,21.8,15.3,7.9-.6,12.8-3.2,19.6-10.4,3.6-3.8,24.7-35.4,61-91.5,30.5-47.1,55.7-85.4,56-85,.5.6,11.1,176.2,11,181.4,0,1.6,1.7,1.8,23.5,1.8h23.5v-4.8c-.1-14.7-15-251.2-16-253.8-2.8-7.2-8.3-10.5-17.8-10.5s-15.5,3.2-20.5,9c-1.8,2.1-30.7,46.2-64.3,97.9-33.5,51.7-61.2,94-61.4,94-.3,0-9.9-42.2-21.4-93.7-11.5-51.6-21.6-95.1-22.4-96.7-3.7-7.5-9.3-10.5-18.9-10.4-3.7,0-8.4.6-10.3,1.2"/>
  </g>
</svg>
