<?xml version="1.0" encoding="UTF-8"?>

<svg width="25" height="24" viewBox="0 0 25 24" fill="none" xmlns="http://www.w3.org/2000/svg">
    <style>
        .cls-1 {
            fill: #981930;
        }
    </style>
    <path fill-rule="evenodd" clip-rule="evenodd"
        d="M9.96996 2.75C9.83188 2.75 9.71996 2.86193 9.71996 3V5C9.71996 5.13807 9.83188 5.25 9.96996 5.25H15.97C16.108 5.25 16.22 5.13807 16.22 5V3C16.22 2.86193 16.108 2.75 15.97 2.75H9.96996ZM17.72 3.25V3C17.72 2.0335 16.9365 1.25 15.97 1.25H9.96996C9.00346 1.25 8.21996 2.0335 8.21996 3V3.25H6.96996C6.24061 3.25 5.54114 3.53973 5.02541 4.05546C4.50969 4.57118 4.21996 5.27065 4.21996 6V13.5C4.21996 13.9142 4.55574 14.25 4.96996 14.25C5.38417 14.25 5.71996 13.9142 5.71996 13.5V6C5.71996 5.66848 5.85165 5.35054 6.08607 5.11612C6.32049 4.8817 6.63844 4.75 6.96996 4.75H8.21996V5C8.21996 5.9665 9.00346 6.75 9.96996 6.75H15.97C16.9365 6.75 17.72 5.9665 17.72 5V4.75H18.97C19.3015 4.75 19.6194 4.8817 19.8538 5.11612C20.0883 5.35054 20.22 5.66848 20.22 6V20C20.22 20.3315 20.0883 20.6495 19.8538 20.8839C19.6194 21.1183 19.3015 21.25 18.97 21.25H13.47C13.0557 21.25 12.72 21.5858 12.72 22C12.72 22.4142 13.0557 22.75 13.47 22.75H18.97C19.6993 22.75 20.3988 22.4603 20.9145 21.9445C21.4302 21.4288 21.72 20.7293 21.72 20V6C21.72 5.27065 21.4302 4.57118 20.9145 4.05546C20.3988 3.53973 19.6993 3.25 18.97 3.25H17.72ZM12.875 12.7449C12.6977 12.7449 12.5221 12.7798 12.3583 12.8477C12.1947 12.9154 12.046 13.0147 11.9208 13.1398L6.6371 18.4332L6.00258 20.9649L8.53639 20.3234L13.8296 15.0497C13.8295 15.0498 13.8297 15.0496 13.8296 15.0497C13.9548 14.9244 14.0545 14.7753 14.1223 14.6117C14.1901 14.4479 14.2251 14.2723 14.2251 14.095C14.2251 13.9177 14.1901 13.7421 14.1223 13.5783C14.0544 13.4145 13.955 13.2657 13.8296 13.1403C13.7043 13.015 13.5554 12.9155 13.3916 12.8477C13.2278 12.7798 13.0523 12.7449 12.875 12.7449ZM11.7843 11.4618C12.1301 11.3186 12.5007 11.2449 12.875 11.2449C13.2492 11.2449 13.6199 11.3186 13.9656 11.4618C14.3114 11.6051 14.6256 11.815 14.8903 12.0797C15.1549 12.3443 15.3649 12.6585 15.5081 13.0043C15.6513 13.3501 15.7251 13.7207 15.7251 14.095C15.7251 14.4693 15.6513 14.8399 15.5081 15.1857C15.3649 15.5315 15.1549 15.8457 14.8903 16.1103L9.44931 21.5313C9.35388 21.6264 9.23461 21.694 9.10402 21.7271L5.15402 22.7271C4.89817 22.7918 4.6271 22.7174 4.44026 22.531C4.25341 22.3446 4.17829 22.0737 4.24246 21.8177L5.23246 17.8677C5.26541 17.7362 5.33338 17.6161 5.42914 17.5202L10.8591 12.0802C11.1238 11.8155 11.4385 11.6051 11.7843 11.4618Z" />
</svg>