<?xml version="1.0" encoding="UTF-8"?>

<svg width="40" height="40" viewBox="0 0 40 40" fill="none" xmlns="http://www.w3.org/2000/svg">

    <style>
        .cls-1 {
            fill: #B51B32;
        }
    </style>

    <path
        d="M0 20C0 8.95431 8.95431 0 20 0C31.0457 0 40 8.95431 40 20C40 31.0457 31.0457 40 20 40C8.95431 40 0 31.0457 0 20Z" />
    <path fill-rule="evenodd" clip-rule="evenodd"
        d="M16.4697 14.0139C16.7626 13.7454 17.2374 13.7454 17.5303 14.0139L23.5303 19.5139C23.671 19.6428 23.75 19.8177 23.75 20C23.75 20.1823 23.671 20.3572 23.5303 20.4861L17.5303 25.9861C17.2374 26.2546 16.7626 26.2546 16.4697 25.9861C16.1768 25.7177 16.1768 25.2824 16.4697 25.0139L21.9393 20L16.4697 14.9861C16.1768 14.7177 16.1768 14.2823 16.4697 14.0139Z"
        fill="white" />
</svg>