<?xml version="1.0" encoding="UTF-8"?>

<svg width="40" height="40" viewBox="0 0 40 40" fill="none" xmlns="http://www.w3.org/2000/svg">
    <style>
        .cls-1 {
            fill: #B51B32;
        }
    </style>
    <path
        d="M0 20C0 8.95431 8.95431 0 20 0C31.0457 0 40 8.95431 40 20C40 31.0457 31.0457 40 20 40C8.95431 40 0 31.0457 0 20Z" />
    <path fill-rule="evenodd" clip-rule="evenodd"
        d="M20 12.8958C20.4142 12.8958 20.75 13.2036 20.75 13.5833V19.3125H27C27.4142 19.3125 27.75 19.6203 27.75 20C27.75 20.3797 27.4142 20.6875 27 20.6875H20.75V26.4167C20.75 26.7964 20.4142 27.1042 20 27.1042C19.5858 27.1042 19.25 26.7964 19.25 26.4167V20.6875H13C12.5858 20.6875 12.25 20.3797 12.25 20C12.25 19.6203 12.5858 19.3125 13 19.3125H19.25V13.5833C19.25 13.2036 19.5858 12.8958 20 12.8958Z"
        fill="white" stroke="white" stroke-width="0.2" stroke-linecap="round" stroke-linejoin="round" />
</svg>