<?xml version="1.0" encoding="UTF-8"?>

<svg width="23" height="23" viewBox="0 0 23 23" fill="none" xmlns="http://www.w3.org/2000/svg">
    <style>
        .cls-1 {
            fill: #981930;
        }
    </style>
    <path fill-rule="evenodd" clip-rule="evenodd"
        d="M4.9997 2.19144C5.48245 1.7087 6.13719 1.4375 6.81989 1.4375H14.7763C14.9625 1.4375 15.141 1.51146 15.2727 1.64312L20.421 6.79138C20.5526 6.92303 20.6266 7.1016 20.6266 7.28779V18.9884C20.6266 19.6711 20.3554 20.3258 19.8726 20.8086C19.3899 21.2913 18.7351 21.5625 18.0524 21.5625H4.94779C4.56007 21.5625 4.24576 21.2482 4.24576 20.8605C4.24576 20.4727 4.56007 20.1584 4.94779 20.1584H18.0524C18.3628 20.1584 18.6604 20.0352 18.8798 19.8157C19.0992 19.5963 19.2225 19.2987 19.2225 18.9884V8.45785H14.3083C13.9205 8.45785 13.6062 8.14354 13.6062 7.75582V2.84157H6.81989C6.50957 2.84157 6.21196 2.96484 5.99253 3.18427C5.7731 3.4037 5.64983 3.70131 5.64983 4.01163V7.75582C5.64983 8.14354 5.33552 8.45785 4.94779 8.45785C4.56007 8.45785 4.24576 8.14354 4.24576 7.75582V4.01163C4.24576 3.32893 4.51696 2.67419 4.9997 2.19144ZM15.0103 3.36637V7.05378H18.6977L15.0103 3.36637Z" />
    <g clip-path="url(#clip0_123_1877)">
        <path d="M1.4375 17.172V11.5781H2.52602V16.1426H4.72284V17.172H1.4375Z" />
        <path
            d="M7.38682 17.25C6.84586 17.25 6.38406 17.1293 6.00803 16.8951C5.632 16.6608 5.34173 16.3272 5.15041 15.8941C4.9591 15.4611 4.85355 14.9571 4.85355 14.375C4.85355 13.7929 4.9525 13.2889 5.15041 12.8559C5.34833 12.4228 5.632 12.0892 6.00803 11.8549C6.38406 11.6207 6.84586 11.5 7.38682 11.5C7.92778 11.5 8.38957 11.6207 8.7656 11.8549C9.14164 12.0892 9.42531 12.4228 9.62322 12.8559C9.82113 13.2889 9.92009 13.7929 9.92009 14.375C9.92009 14.9571 9.82113 15.4611 9.62322 15.8941C9.42531 16.3272 9.14164 16.6537 8.7656 16.8951C8.38957 17.1364 7.92778 17.25 7.38682 17.25ZM7.38682 16.2775C7.72327 16.2775 7.99375 16.1923 8.20485 16.0219C8.41596 15.8515 8.56109 15.6173 8.66005 15.3333C8.75901 15.0494 8.80519 14.7299 8.80519 14.3821C8.80519 14.0343 8.75901 13.7148 8.66005 13.4238C8.56109 13.1327 8.41596 12.9056 8.20485 12.7352C7.99375 12.5648 7.72987 12.4796 7.38682 12.4796C7.04377 12.4796 6.77329 12.5648 6.56219 12.7352C6.35108 12.9056 6.20594 13.1398 6.10699 13.4238C6.00803 13.7077 5.96845 14.0343 5.96845 14.3821C5.96845 14.7299 6.01463 15.0423 6.10699 15.3333C6.19935 15.6244 6.35108 15.8515 6.56219 16.0219C6.77329 16.1923 7.04377 16.2775 7.38682 16.2775Z" />
        <path
            d="M13.0652 17.25C12.4383 17.25 11.9044 17.1292 11.4555 16.8946C11.0066 16.6601 10.6661 16.326 10.4262 15.8925C10.1863 15.4589 10.0625 14.9543 10.0625 14.3786C10.0625 13.8028 10.1863 13.2911 10.4262 12.8575C10.6661 12.424 11.0066 12.0899 11.4555 11.8554C11.9044 11.6208 12.4383 11.5 13.0652 11.5C13.3825 11.5 13.6843 11.5355 13.9939 11.6137C14.3034 11.6919 14.5743 11.8056 14.8219 11.962C15.0696 12.1184 15.2785 12.3174 15.441 12.559C15.6035 12.8007 15.7042 13.085 15.7351 13.419H14.435C14.4118 13.2342 14.3421 13.0708 14.226 12.9286C14.1099 12.7865 13.9552 12.6727 13.754 12.5946C13.5527 12.5164 13.3128 12.4737 13.0342 12.4737C12.6318 12.4737 12.3145 12.559 12.0669 12.7367C11.8192 12.9144 11.6412 13.1418 11.5329 13.4333C11.4245 13.7247 11.3626 14.0374 11.3626 14.3786C11.3626 14.7197 11.4168 15.0324 11.5329 15.3239C11.649 15.6153 11.827 15.8427 12.0746 16.0204C12.3223 16.1981 12.6473 16.2834 13.0575 16.2834C13.3593 16.2834 13.6147 16.2336 13.8313 16.1412C14.048 16.0488 14.2105 15.9138 14.3266 15.7432C14.4427 15.5726 14.5124 15.3807 14.5356 15.1533H13.0884V14.2222H15.8125V14.7908C15.8125 15.2741 15.7042 15.7077 15.4952 16.0701C15.2863 16.4326 14.969 16.7311 14.5588 16.9373C14.1486 17.1434 13.6456 17.25 13.0575 17.25H13.0652Z" />
    </g>
    <defs>
        <clipPath id="clip0_123_1877">
            <rect width="14.375" height="5.75" fill="white" transform="translate(1.4375 11.5)" />
        </clipPath>
    </defs>
</svg>